<svg width="4.08in" height="3.77in" version="1.1" viewBox="0 0 392 362" xmlns="http://www.w3.org/2000/svg"><g transform="translate(-200 -591)"><path d="m200 938v-15h24.5l42.4-42.5-2.56-8.5c-3.03-10.1-4.25-29.8-2.45-39.4l1.11-5.93-6.81-7.07c-7.69-7.98-11.6-13.4-15.9-22.1-3.02-6.05-6.58-16.2-7.78-22.2l-0.649-3.25h-31.8v-30h31.7l1.74-7.25c3.37-14 12.6-30.6 22.5-40.2l5.07-4.96 0.0156-9.04c9e-3 -4.97 0.607-11.5 1.33-14.6l1.31-5.58-38.6-39.3h-25.1v-30h16.9c9.35 0 18.2 0.469 19.8 1.05 1.55 0.576 11.5 9.69 22.1 20.2l19.3 19.2 7.5-8.18c18.1-19.8 34.6-28.5 58.8-31.3 14.5-1.68 30.1 1.29 45 8.59l6.88 3.37 4.12-2.41c6.11-3.57 21-8.24 30.3-9.49 9.54-1.29 22.9-0.0139 33.3 3.17 15.5 4.75 32 15.9 43.2 29.2l6.28 7.45 19.5-19.4c10.7-10.7 20.8-19.9 22.3-20.4 1.55-0.579 10.4-1.05 19.8-1.05h16.9v30h-25.3l-38.3 39.4 1.31 5.54c0.718 3.05 1.31 9.58 1.32 14.5l0.0156 8.97 5.4 5.53c10.3 10.6 18.6 25.7 22.3 40.6l1.59 6.44h31.7v30h-31.7l-1.55 6.25c-3.89 15.7-11 28.6-22.2 40.5l-7.55 8.03 1.1 5.87c1.79 9.58 0.558 29.3-2.46 39.4l-2.56 8.5 42.4 42.5h24.5v30h-17c-12 0-18-0.396-20.3-1.35-1.87-0.782-12-10.5-24.2-23.1l-21-21.7-2.37 2.83c-5.32 6.36-18 18.8-23.4 23-7.58 5.86-19.4 11.7-29.3 14.4-6.32 1.77-10.6 2.24-20.5 2.25-13.7 7e-3 -20.7-1.4-31.7-6.37l-6.31-2.86-6.25 2.8c-15.6 6.99-36.2 8.63-52.2 4.17-9.87-2.74-21.6-8.54-29.3-14.4-5.38-4.16-18.1-16.6-23.4-23l-2.36-2.82-21 21.7c-12.2 12.6-22.3 22.3-24.2 23.1-2.29 0.958-8.22 1.35-20.3 1.35h-17zm174-21.4 6.5-2.13 0.254-109 0.254-109h-9.27c-13.8 0-19.6-3.86-20.4-13.7-0.539-6.16 1.98-11 7.31-14.1 3.25-1.86 5.42-2.24 13.1-2.25l9.25-0.0164v-17.9c0-20.9 0.789-19.4-12.5-23.6-19.1-6.06-37.9-1.58-54.5 13-17.2 15.1-23.8 29.2-22.8 48.6 0.807 15.9 8.26 31.1 20.3 41.3 5.4 4.61 7.47 8.28 7.47 13.2 0 10.6-9.68 17.7-19.6 14.4-4.92-1.62-18.3-15-24.3-24.3l-4.41-6.84-2.33 3.84c-12.8 21.1-9.27 51.4 8.26 70l4.08 4.32h14c16.8 0 22.7 0.978 31.3 5.19 12.5 6.11 21.8 19.1 24.1 33.7 0.976 6.29 0.901 7.94-0.536 11.7-4.35 11.4-20.1 12.7-26.5 2.16-1.09-1.79-1.99-4.51-1.99-6.04-4e-3 -3.33-2.42-9.42-4.77-12-2.84-3.14-8.1-4.7-15.8-4.7h-7.33l-1.04 3.75c-1.49 5.37-1.27 17.7 0.453 25 3.03 12.8 11.6 26.5 24.9 39.7 17.8 17.7 36 22.9 56.6 16.1zm74 0.694c9.42-2.58 17-7.31 26-16.3 19.4-19.2 27.8-37.1 26.7-56.5-0.724-12.8-0.532-12.5-9.37-12.5-4.09 0-8.93 0.627-10.8 1.39-4.91 2.05-8.62 7.5-9.5 14-0.407 3-1.52 6.64-2.48 8.1-6.23 9.5-21.1 8.44-25.7-1.85-2.28-5.01-2.37-9.38-0.371-17.1 3.36-12.9 12-23.7 23.5-29.3 8.58-4.2 14.5-5.19 31-5.19h13.7l3.77-3.75c15.2-15.1 20.7-38.1 14.1-58.8-1.4-4.39-3.61-9.72-4.91-11.9l-2.37-3.89-4.76 7.39c-5.91 9.18-19.1 22.3-24.1 23.9-9.89 3.26-19.4-3.88-19.4-14.5 0-4.95 1.86-8.01 9.07-15 12.1-11.7 17.9-23.9 18.7-39.5 0.868-17.2-4.57-30.7-17.6-43.7-20.2-20.2-40.6-25.3-64.3-16.1l-7.78 3v36.9h9.04c11.1 0 15.4 1.81 18.8 7.99 4.19 7.46 1.33 16.8-6.26 20.4-2.38 1.13-6.2 1.62-12.5 1.62h-9.1l0.254 109 0.254 109 5 1.86c9.56 3.56 20.9 3.93 31.5 1.03z"/></g></svg>
