<?xml version="1.0" encoding="iso-8859-1"?>
<!-- Uploaded to: SVG Repo, www.svgrepo.com, Generator: SVG Repo Mixer Tools -->
<!DOCTYPE svg PUBLIC "-//W3C//DTD SVG 1.1//EN" "http://www.w3.org/Graphics/SVG/1.1/DTD/svg11.dtd">
<svg fill="#000000" version="1.1" id="Capa_1" xmlns="http://www.w3.org/2000/svg" xmlns:xlink="http://www.w3.org/1999/xlink" 
	 width="800px" height="800px" viewBox="0 0 482.316 482.316"
	 xml:space="preserve">
<g>
	<g>
		<path d="M482.099,193.897c-0.005-1.935-0.178-3.856-0.519-5.718c-0.197-4.677-1.294-9.211-3.255-13.489
			c-8.267-18.007-27.345-32.098-47.469-35.069c-2.646-0.383-5.515-0.482-8.317-0.312c-2.036-0.409-4.118-0.617-6.19-0.617
			l-0.894,0.01c-45.793,1.275-71.65,1.529-111.258,1.587c6.905-6.18,13.223-11.931,19.123-17.415
			c8.724-8.107,11.445-19.235,7.308-29.775c-4.662-11.862-16.56-20.149-28.919-20.149c-7.196,0-13.995,2.798-19.683,8.079
			c-20.343,18.913-42.34,38.158-65.392,57.216c-10.491,2.204-19.228,11.35-22.016,23.237c-2.948,12.588,1.622,24.471,12.23,31.785
			c28.47,19.632,55.972,41.028,81.742,63.607c5.683,4.971,12.421,7.602,19.489,7.602c12.634,0,25.055-8.658,29.539-20.586
			c3.981-10.567,1.076-21.16-7.942-29.061c-5.748-5.03-11.801-10.177-18.55-15.762c38.653-0.083,62.262-0.401,104.637-1.574
			c1.274-0.038,2.493-0.163,3.672-0.335c1.071,0.236,2.138,0.5,3.194,0.818c0.243,0.129,0.477,0.264,0.695,0.401
			c0.021,6.406,0.051,12.817,0.086,19.223c0.198,39.773,0.401,80.89-2.818,121.158l-0.172,0.305
			c-0.152,0.224-0.523,0.736-0.909,1.27l-0.939,1.33c-1.442,1.661-3.037,3.266-4.859,4.906c-1.412,0.979-2.92,1.812-4.337,2.609
			c-0.305,0.157-0.609,0.31-0.924,0.462c-0.351,0.102-0.742,0.229-1.188,0.392c-23.171,0.025-45.337,0.157-66.907,0.284
			c-22.435,0.127-44.225,0.27-65.831,0.27c-50.351,0-111.251-0.641-181.215-5.383c-1.435-0.097-3.072-0.066-3.796-0.011H77.031
			c-0.764-0.243-1.548-0.457-2.366-0.64c-1.384-0.289-2.729-0.63-4.232-1.076c-0.66-0.355-1.295-0.757-1.924-1.163
			c-0.541-0.487-1.072-0.97-1.597-1.478c-0.467-0.452-0.967-0.833-1.539-1.219c-0.297-0.305-0.587-0.595-0.894-0.894
			c-0.521-1.641-1.196-3.28-2.029-4.875c-0.348-13.67-1.36-27.451-2.333-40.802c-2.366-32.393-4.608-63.058,1.47-93.635
			c21.498,0.48,42.962,1.518,68.192,2.917c19.253,1.092,28.442-13.576,28.812-27.122c0.409-14.934-9.153-30.603-28.236-31.661
			c-29.546-1.635-58.452-3.116-87.529-3.235c-5.241,0-9.999,1.158-14.16,3.448c-9.412,2.711-16.107,9.701-18.896,19.733
			c-12.796,45.935-10.222,93.577-7.726,139.644c0.726,13.427,1.47,27.319,1.831,40.938c0.16,6.175,1.991,11.832,5.291,16.433
			c1.077,3.545,2.529,6.698,4.322,9.404c3.075,4.637,6.662,8.419,11.585,12.202c0.134,0.158,0.282,0.311,0.371,0.401
			c9.508,9.263,20.33,15.447,32.176,18.372c4.139,2.057,8.427,3.098,12.764,3.098h19.36c0.505,0,0.988-0.051,1.691-0.137
			c0.383,0.056,0.774,0.097,1.186,0.127c70.249,4.758,131.377,5.393,181.911,5.393c21.647,0,43.463-0.122,65.917-0.264
			c22.146-0.127,44.899-0.265,68.716-0.285l0.578-0.025c0.899,0.087,1.808,0.127,2.712,0.127c2.717,0,5.388-0.4,7.932-1.208
			c22.79-7.231,41.071-21.932,52.893-42.528c1.849-3.229,3.057-6.748,3.58-10.466c1.051-2.706,1.721-5.626,2.006-8.714
			c3.793-42.543,3.569-85.777,3.346-127.592C482.16,210.251,482.114,202.078,482.099,193.897z"/>
	</g>
</g>
</svg>
