<?xml version="1.0" encoding="UTF-8"?>
<svg width="5.9218mm" height="5.6891mm" version="1.1" viewBox="0 0 5.9218 5.6891" xml:space="preserve" xmlns="http://www.w3.org/2000/svg"><g transform="translate(-102.12 -144.27)"><g transform="matrix(.26458 0 0 .22014 100.92 144.27)"><path d="m7.45 2.0589v0.13728h13.61c0.79 0.80753 2.35 2.4226 3.82 4.0376v17.992h-0.88v-0.58142h-16.55v0.58142h-0.92v-22.611h0.92m1.29-1.6151h-3.49a0.69 0.55719 0 0 0-0.51 0.15343 0.68 0.54912 0 0 0-0.21 0.42799v24.678a0.7 0.56527 0 0 0 0.21 0.41991 0.69 0.55719 0 0 0 0.51 0.16151h3.49a0.7 0.56527 0 0 0 0.52-0.16151 0.73 0.58949 0 0 0 0.19-0.41991h12.55a0.69 0.55719 0 0 0 0.2 0.41991 0.71 0.57334 0 0 0 0.51 0.16151h3.49a0.69 0.55719 0 0 0 0.52-0.16151 0.73 0.58949 0 0 0 0.19-0.41991v-19.607s-4.78-5.0793-4.91-5.0793h-12.55a0.7 0.56527 0 0 0-0.19-0.41991 0.69 0.55719 0 0 0-0.52-0.15343z" stroke-width=".89862"/><path d="m8.8311 11.291v-1.2436c0-0.20996 0.14-0.37146 0.31-0.37146h13.49a0.34 0.27456 0 0 1 0.34 0.27456v1.4374a0.34 0.27456 0 0 1-0.34 0.27456h-13.49c-0.17 0-0.31-0.18573-0.31-0.37146z" stroke-width=".89862"/><path d="m8.8311 6.5603v-1.2438c0-0.21 0.084847-0.37153 0.18787-0.37153h8.1756a0.20606 0.27461 0 0 1 0.20606 0.27461v1.4377a0.20606 0.27461 0 0 1-0.20606 0.27461h-8.1756c-0.10303 0-0.18787-0.18577-0.18787-0.37153z" stroke-width=".69964"/><path d="m8.8307 15.955v-1.2436c0-0.20996 0.14-0.37146 0.31-0.37146h13.49a0.34 0.27456 0 0 1 0.34 0.27456v1.4374a0.34 0.27456 0 0 1-0.34 0.27456h-13.49c-0.17 0-0.31-0.18573-0.31-0.37146z" stroke-width=".89862"/><path d="m8.8307 20.667v-1.2436c0-0.20996 0.14-0.37146 0.31-0.37146h13.49a0.34 0.27456 0 0 1 0.34 0.27456v1.4374a0.34 0.27456 0 0 1-0.34 0.27456h-13.49c-0.17 0-0.31-0.18573-0.31-0.37146z" stroke-width=".89862"/></g></g></svg>
