<svg width="32" height="32" version="1.1" viewBox="0 0 32 32" xmlns="http://www.w3.org/2000/svg"><path d="m5.709 0.0019531a0.67824 0.68994 0 0 0-0.50195 0.18945 0.66841 0.67995 0 0 0-0.20508 0.5293v30.559a0.68807 0.69995 0 0 0 0.20508 0.51953 0.67824 0.68994 0 0 0 0.50195 0.20117h3.4297a0.68807 0.69995 0 0 0 0.51172-0.20117 0.71755 0.72994 0 0 0 0.1875-0.51953h12.336a0.67824 0.68994 0 0 0 0.19531 0.51953 0.6979 0.70994 0 0 0 0.50195 0.20117h3.4297a0.67824 0.68994 0 0 0 0.51172-0.20117 0.71755 0.72994 0 0 0 0.1875-0.51953v-24.279s-4.6984-6.2891-4.8262-6.2891h-12.336a0.68807 0.69995 0 0 0-0.1875-0.51953 0.67824 0.68994 0 0 0-0.51172-0.18945h-3.4297zm1.2578 2h0.9043v0.54883 0.16992h13.379c0.77653 0.99993 2.309 3.0002 3.7539 5v22.279h-0.86523v-0.7207h-16.268v0.7207h-0.9043v-27.998zm2.4473 4.123c-0.10127 0-0.18555 0.2009-0.18555 0.46094v1.5391c0 0.23002 0.084273 0.46094 0.18555 0.46094h8.0352a0.20255 0.34004 0 0 0 0.20312-0.33984v-1.7812a0.20255 0.34004 0 0 0-0.20312-0.33984h-8.0352zm0.11914 5.8574c-0.1671 0-0.30469 0.20095-0.30469 0.46094v1.5391c0 0.22998 0.13759 0.46094 0.30469 0.46094h13.26a0.3342 0.33998 0 0 0 0.33398-0.33984v-1.7793a0.3342 0.33998 0 0 0-0.33398-0.3418h-13.26zm0 5.7754c-0.1671 0-0.30469 0.20095-0.30469 0.46094v1.5391c0 0.22998 0.13759 0.46094 0.30469 0.46094h13.26a0.3342 0.33998 0 0 0 0.33398-0.33984v-1.7812a0.3342 0.33998 0 0 0-0.33398-0.33984h-13.26zm0 5.8359c-0.1671 0-0.30469 0.199-0.30469 0.45898v1.541c0 0.22998 0.13759 0.45898 0.30469 0.45898h13.26a0.3342 0.33998 0 0 0 0.33398-0.33984v-1.7793a0.3342 0.33998 0 0 0-0.33398-0.33984h-13.26z"/></svg>
