<svg xmlns="http://www.w3.org/2000/svg" viewBox="0 0 32 32"><path d="M20,12.31a.48.48,0,0,1,.47-.32h1.82a.54.54,0,0,1,.27.07.23.23,0,0,1,.1.2.59.59,0,0,1-.06.18L17.44,23.18a.47.47,0,0,1-.47.31H15a.47.47,0,0,1-.47-.31L9.44,12.44a.59.59,0,0,1-.06-.18.23.23,0,0,1,.1-.2A.54.54,0,0,1,9.75,12h1.82a.47.47,0,0,1,.47.32l4,8.29Z"/><path d="M14.91.39A.4.4,0,0,1,15,.1.41.41,0,0,1,15.3,0h1.39A.46.46,0,0,1,17,.1a.4.4,0,0,1,.11.29V20.56a.39.39,0,0,1-.11.28.38.38,0,0,1-.29.11H15.3a.34.34,0,0,1-.28-.11.39.39,0,0,1-.11-.28Z"/><path d="M26.08,29.49a.36.36,0,0,1,.29.12.49.49,0,0,1,.11.33v1.61a.48.48,0,0,1-.11.32.34.34,0,0,1-.29.13H5.92a.33.33,0,0,1-.28-.13.44.44,0,0,1-.12-.32V29.94a.45.45,0,0,1,.12-.33.35.35,0,0,1,.28-.12Z"/></svg>
