<svg width="32" height="31.973" version="1.1" viewBox="0 0 32 31.973" xmlns="http://www.w3.org/2000/svg"><path d="m2.818 0a0.91545 0.91545 0 0 0-0.57617 0.29492l-1.957 1.957a0.81594 0.81594 0 0 0-0.28125 0.56249 0.79604 0.79604 0 0 0 0.28125 0.53516l12.623 12.623-12.666 12.664a0.77614 0.77614 0 0 0-0.23828 0.54883 0.75624 0.75624 0 0 0 0.25391 0.5625l1.9844 1.9844a0.67663 0.67663 0 0 0 0.54883 0.24024 0.77614 0.77614 0 0 0 0.54883-0.24024l12.664-12.664 12.664 12.664a0.77614 0.77614 0 0 0 0.54883 0.24024 0.67663 0.67663 0 0 0 0.54883-0.24024l1.9844-1.9844a0.75624 0.75624 0 0 0 0.25391-0.5625 0.77614 0.77614 0 0 0-0.23828-0.54883l-12.666-12.664 12.623-12.623a0.79604 0.79604 0 0 0 0.28125-0.53516 0.81594 0.81594 0 0 0-0.28125-0.56249l-1.957-1.957a0.91545 0.91545 0 0 0-0.57617-0.29492 0.79604 0.79604 0 0 0-0.5625 0.25391l-12.623 12.623-12.623-12.623a0.79604 0.79604 0 0 0-0.5625-0.25391z"/></svg>
