<svg xmlns="http://www.w3.org/2000/svg" viewBox="0 0 32 32"><path d="M13.24,2.23c5.41,0,8.52,4.52,8.52,9.5s-3,9.5-8.52,9.5S4.78,17,4.71,11.73c-.06-5.58,3.11-9.5,8.53-9.5m0-2.17A10.37,10.37,0,0,0,5.69,3a12.08,12.08,0,0,0-3.15,8.74,12.81,12.81,0,0,0,2.74,8.09,10,10,0,0,0,8,3.56,10.13,10.13,0,0,0,8-3.67,12.5,12.5,0,0,0,2.71-8,12.47,12.47,0,0,0-2.74-8,10.15,10.15,0,0,0-8-3.66Z"/><path d="M29.36,30.44a.35.35,0,0,1-.05.54l-1.07.87a.37.37,0,0,1-.28.09.31.31,0,0,1-.26-.15L18,20.48a.38.38,0,0,1-.09-.28.4.4,0,0,1,.14-.27l1.06-.86a.38.38,0,0,1,.55.06Z"/></svg>
