<svg xmlns="http://www.w3.org/2000/svg" xmlns:xlink="http://www.w3.org/1999/xlink" style="margin: auto; display: block;" viewBox="0 0 100 100" preserveAspectRatio="xMidYMid">
<g transform="rotate(0 50 50)">
  <rect x="47.5" y="14.5" rx="0" ry="0" width="5" height="17" fill="#ffffff">
    <animate attributeName="opacity" values="1;0" keyTimes="0;1" dur="1s" begin="-0.9545454545454546s" repeatCount="indefinite"></animate>
  </rect>
</g><g transform="rotate(16.363636363636363 50 50)">
  <rect x="47.5" y="14.5" rx="0" ry="0" width="5" height="17" fill="#ffffff">
    <animate attributeName="opacity" values="1;0" keyTimes="0;1" dur="1s" begin="-0.9090909090909091s" repeatCount="indefinite"></animate>
  </rect>
</g><g transform="rotate(32.72727272727273 50 50)">
  <rect x="47.5" y="14.5" rx="0" ry="0" width="5" height="17" fill="#ffffff">
    <animate attributeName="opacity" values="1;0" keyTimes="0;1" dur="1s" begin="-0.8636363636363636s" repeatCount="indefinite"></animate>
  </rect>
</g><g transform="rotate(49.09090909090909 50 50)">
  <rect x="47.5" y="14.5" rx="0" ry="0" width="5" height="17" fill="#ffffff">
    <animate attributeName="opacity" values="1;0" keyTimes="0;1" dur="1s" begin="-0.8181818181818182s" repeatCount="indefinite"></animate>
  </rect>
</g><g transform="rotate(65.45454545454545 50 50)">
  <rect x="47.5" y="14.5" rx="0" ry="0" width="5" height="17" fill="#ffffff">
    <animate attributeName="opacity" values="1;0" keyTimes="0;1" dur="1s" begin="-0.7727272727272727s" repeatCount="indefinite"></animate>
  </rect>
</g><g transform="rotate(81.81818181818181 50 50)">
  <rect x="47.5" y="14.5" rx="0" ry="0" width="5" height="17" fill="#ffffff">
    <animate attributeName="opacity" values="1;0" keyTimes="0;1" dur="1s" begin="-0.7272727272727273s" repeatCount="indefinite"></animate>
  </rect>
</g><g transform="rotate(98.18181818181819 50 50)">
  <rect x="47.5" y="14.5" rx="0" ry="0" width="5" height="17" fill="#ffffff">
    <animate attributeName="opacity" values="1;0" keyTimes="0;1" dur="1s" begin="-0.6818181818181818s" repeatCount="indefinite"></animate>
  </rect>
</g><g transform="rotate(114.54545454545455 50 50)">
  <rect x="47.5" y="14.5" rx="0" ry="0" width="5" height="17" fill="#ffffff">
    <animate attributeName="opacity" values="1;0" keyTimes="0;1" dur="1s" begin="-0.6363636363636364s" repeatCount="indefinite"></animate>
  </rect>
</g><g transform="rotate(130.9090909090909 50 50)">
  <rect x="47.5" y="14.5" rx="0" ry="0" width="5" height="17" fill="#ffffff">
    <animate attributeName="opacity" values="1;0" keyTimes="0;1" dur="1s" begin="-0.5909090909090909s" repeatCount="indefinite"></animate>
  </rect>
</g><g transform="rotate(147.27272727272728 50 50)">
  <rect x="47.5" y="14.5" rx="0" ry="0" width="5" height="17" fill="#ffffff">
    <animate attributeName="opacity" values="1;0" keyTimes="0;1" dur="1s" begin="-0.5454545454545454s" repeatCount="indefinite"></animate>
  </rect>
</g><g transform="rotate(163.63636363636363 50 50)">
  <rect x="47.5" y="14.5" rx="0" ry="0" width="5" height="17" fill="#ffffff">
    <animate attributeName="opacity" values="1;0" keyTimes="0;1" dur="1s" begin="-0.5s" repeatCount="indefinite"></animate>
  </rect>
</g><g transform="rotate(180 50 50)">
  <rect x="47.5" y="14.5" rx="0" ry="0" width="5" height="17" fill="#ffffff">
    <animate attributeName="opacity" values="1;0" keyTimes="0;1" dur="1s" begin="-0.45454545454545453s" repeatCount="indefinite"></animate>
  </rect>
</g><g transform="rotate(196.36363636363637 50 50)">
  <rect x="47.5" y="14.5" rx="0" ry="0" width="5" height="17" fill="#ffffff">
    <animate attributeName="opacity" values="1;0" keyTimes="0;1" dur="1s" begin="-0.4090909090909091s" repeatCount="indefinite"></animate>
  </rect>
</g><g transform="rotate(212.72727272727272 50 50)">
  <rect x="47.5" y="14.5" rx="0" ry="0" width="5" height="17" fill="#ffffff">
    <animate attributeName="opacity" values="1;0" keyTimes="0;1" dur="1s" begin="-0.36363636363636365s" repeatCount="indefinite"></animate>
  </rect>
</g><g transform="rotate(229.0909090909091 50 50)">
  <rect x="47.5" y="14.5" rx="0" ry="0" width="5" height="17" fill="#ffffff">
    <animate attributeName="opacity" values="1;0" keyTimes="0;1" dur="1s" begin="-0.3181818181818182s" repeatCount="indefinite"></animate>
  </rect>
</g><g transform="rotate(245.45454545454547 50 50)">
  <rect x="47.5" y="14.5" rx="0" ry="0" width="5" height="17" fill="#ffffff">
    <animate attributeName="opacity" values="1;0" keyTimes="0;1" dur="1s" begin="-0.2727272727272727s" repeatCount="indefinite"></animate>
  </rect>
</g><g transform="rotate(261.8181818181818 50 50)">
  <rect x="47.5" y="14.5" rx="0" ry="0" width="5" height="17" fill="#ffffff">
    <animate attributeName="opacity" values="1;0" keyTimes="0;1" dur="1s" begin="-0.22727272727272727s" repeatCount="indefinite"></animate>
  </rect>
</g><g transform="rotate(278.1818181818182 50 50)">
  <rect x="47.5" y="14.5" rx="0" ry="0" width="5" height="17" fill="#ffffff">
    <animate attributeName="opacity" values="1;0" keyTimes="0;1" dur="1s" begin="-0.18181818181818182s" repeatCount="indefinite"></animate>
  </rect>
</g><g transform="rotate(294.54545454545456 50 50)">
  <rect x="47.5" y="14.5" rx="0" ry="0" width="5" height="17" fill="#ffffff">
    <animate attributeName="opacity" values="1;0" keyTimes="0;1" dur="1s" begin="-0.13636363636363635s" repeatCount="indefinite"></animate>
  </rect>
</g><g transform="rotate(310.90909090909093 50 50)">
  <rect x="47.5" y="14.5" rx="0" ry="0" width="5" height="17" fill="#ffffff">
    <animate attributeName="opacity" values="1;0" keyTimes="0;1" dur="1s" begin="-0.09090909090909091s" repeatCount="indefinite"></animate>
  </rect>
</g><g transform="rotate(327.27272727272725 50 50)">
  <rect x="47.5" y="14.5" rx="0" ry="0" width="5" height="17" fill="#ffffff">
    <animate attributeName="opacity" values="1;0" keyTimes="0;1" dur="1s" begin="-0.045454545454545456s" repeatCount="indefinite"></animate>
  </rect>
</g><g transform="rotate(343.6363636363636 50 50)">
  <rect x="47.5" y="14.5" rx="0" ry="0" width="5" height="17" fill="#ffffff">
    <animate attributeName="opacity" values="1;0" keyTimes="0;1" dur="1s" begin="0s" repeatCount="indefinite"></animate>
  </rect>
</g>
</svg>
