<svg xmlns="http://www.w3.org/2000/svg" viewBox="0 0 32 32"><path d="M10.81,10.31a.4.4,0,0,0,.17.23,5.85,5.85,0,0,1,1.78,2.07,5.5,5.5,0,0,1,.57,2.89l.32.23,1.32.95.32.23a5.4,5.4,0,0,1,2.92-.39,5.83,5.83,0,0,1,2.53,1,.39.39,0,0,0,.28.08.41.41,0,0,0,.23-.17l.86-1.2a.32.32,0,0,0-.09-.49,6.9,6.9,0,0,0-2.75-1.29,3.72,3.72,0,0,0-2.65.58L25.31,3l1-1.38a.35.35,0,0,0,.07-.27.38.38,0,0,0-.15-.24L25.63.64,25.42.49,24.84.07A.38.38,0,0,0,24.57,0a.36.36,0,0,0-.23.16l-1,1.38L14.65,13.65a3.75,3.75,0,0,0-.29-2.7,7.06,7.06,0,0,0-2.11-2.19.31.31,0,0,0-.49.08L10.89,10A.41.41,0,0,0,10.81,10.31Z"/><path d="M14.76.19a.28.28,0,0,0-.23-.14H5c-.26,0-.47.35-.47.77V28.61a.74.74,0,0,0,.09.38.27.27,0,0,0,.23.15H6.44A.27.27,0,0,0,6.68,29a.86.86,0,0,0,.08-.38V2.85h7.77a.27.27,0,0,0,.23-.15.74.74,0,0,0,.09-.38V.58A.75.75,0,0,0,14.76.19Z"/><path d="M20.37,31.86a.27.27,0,0,0,.23.14h5.82c.25,0,.46-.34.46-.77V9.35A.78.78,0,0,0,26.79,9a.28.28,0,0,0-.23-.14H25a.28.28,0,0,0-.24.14.9.9,0,0,0-.08.39V29.2H20.6a.25.25,0,0,0-.23.16.69.69,0,0,0-.09.38v1.73A.75.75,0,0,0,20.37,31.86Z"/></svg>
