<svg xmlns="http://www.w3.org/2000/svg" viewBox="0 0 32 32"><path d="M7.45,2.55v.17H21.06c.79,1,2.35,3,3.82,5V30H24v-.72H7.45V30H6.53V2h.92M8.74,0H5.25a.69.69,0,0,0-.51.19.68.68,0,0,0-.21.53V31.28a.7.7,0,0,0,.21.52.69.69,0,0,0,.51.2H8.74a.7.7,0,0,0,.52-.2.73.73,0,0,0,.19-.52H22a.69.69,0,0,0,.2.52.71.71,0,0,0,.51.2h3.49a.69.69,0,0,0,.52-.2.73.73,0,0,0,.19-.52V7S22.13.71,22,.71H9.45A.7.7,0,0,0,9.26.19.69.69,0,0,0,8.74,0Z"/><path d="M8.93,16.77V15.23c0-.26.14-.46.31-.46H22.73a.34.34,0,0,1,.34.34v1.78a.34.34,0,0,1-.34.34H9.24C9.07,17.23,8.93,17,8.93,16.77Z"/><path d="M15.23,8.93h1.54c.26,0,.46.14.46.31V22.57a.51.51,0,0,1-.5.5H15.27a.51.51,0,0,1-.5-.5V9.24C14.77,9.07,15,8.93,15.23,8.93Z"/></svg>
