<svg xmlns="http://www.w3.org/2000/svg" viewBox="0 0 32 32"><path d="M7,23.44a5.92,5.92,0,0,0,1,3.73,5,5,0,0,0,2.91,1.7A23.47,23.47,0,0,0,16,29.3a23.7,23.7,0,0,0,5.07-.43A5,5,0,0,0,24,27.17a5.86,5.86,0,0,0,1-3.73h2.42A8.48,8.48,0,0,1,25.84,29a7.22,7.22,0,0,1-4,2.44A26.61,26.61,0,0,1,16,32a26.55,26.55,0,0,1-5.87-.56,7.23,7.23,0,0,1-4-2.44,8.53,8.53,0,0,1-1.56-5.56Z"/><path d="M19.59,15.54a.5.5,0,0,1,.54-.07l1.66.73a.57.57,0,0,1,.22.16.18.18,0,0,1,0,.2.49.49,0,0,1-.11.13l-8.51,6.7a.48.48,0,0,1-.55.07l-1.76-.78a.47.47,0,0,1-.32-.44L10,11.44a.49.49,0,0,1,0-.17.17.17,0,0,1,.16-.12.49.49,0,0,1,.27,0l1.66.73a.47.47,0,0,1,.31.44L13,20.71Z"/><path d="M15.81,0h1.78a.34.34,0,0,1,.34.36,5.82,5.82,0,0,1-2,4,3.41,3.41,0,0,0-1.32,2.62,3.37,3.37,0,0,0,1.32,2.61,5.64,5.64,0,0,1,0,8.62,3.41,3.41,0,0,0-1.32,2.62H12.17a5.75,5.75,0,0,1,2-4.31,3.25,3.25,0,0,0,0-5.23,5.75,5.75,0,0,1-2-4.31,5.73,5.73,0,0,1,2-4.31A3.59,3.59,0,0,0,15.48.31.34.34,0,0,1,15.81,0Z"/></svg>
