<?xml version="1.0" encoding="utf-8"?>
<svg xmlns="http://www.w3.org/2000/svg" viewBox="0 0 500 500" width="500px" height="500px"><path style="fill-rule: nonzero;" transform="matrix(2.137881, 0, 0, 2.137881, -1297.53418, -1130.721802)" d="M 780.818419557 619.899 L 793.455580443 619.899 L 796.122574036 639.199879672 A 33.571 33.571 0 0 1 803.655400695 642.320078638 L 819.189032849 630.558144993 L 828.124855007 639.493967151 L 816.362921362 655.027599305 A 33.571 33.571 0 0 1 819.483120328 662.560425964 L 838.784 665.227419557 L 838.784 677.864580443 L 819.483120328 680.531574036 A 33.571 33.571 0 0 1 816.362921362 688.064400695 L 828.124855007 703.598032849 L 819.189032849 712.533855007 L 803.655400695 700.771921362 A 33.571 33.571 0 0 1 796.122574036 703.892120328 L 793.455580443 723.193 L 780.818419557 723.193 L 778.151425964 703.892120328 A 33.571 33.571 0 0 1 770.618599305 700.771921362 L 755.084967151 712.533855007 L 746.149144993 703.598032849 L 757.911078638 688.064400695 A 33.571 33.571 0 0 1 754.790879672 680.531574036 L 735.49 677.864580443 L 735.49 665.227419557 L 754.790879672 662.560425964 A 33.571 33.571 0 0 1 757.911078638 655.027599305 L 746.149144993 639.493967151 L 755.084967151 630.558144993 L 770.618599305 642.320078638 A 33.571 33.571 0 0 1 778.151425964 639.199879672 Z M 787.137 656.052 A 15.494 15.494 0 0 0 787.137 687.04 A 15.494 15.494 0 0 0 787.137 656.052"/><rect x="116.9" y="304.657" width="145.455" height="20.897" style="transform-box: fill-box; transform-origin: 50% 50%;" transform="matrix(0.707107, -0.707107, 0.707107, 0.707107, -130.362199, -135.792617)"/><rect x="116.9" y="304.657" width="145.455" height="20.897" style="stroke-width: 1; transform-origin: 189.627px 315.105px;" transform="matrix(0.707107, 0.707107, -0.707107, 0.707107, 111.421386, -136.740152)"/><rect x="116.9" y="304.657" width="145.455" height="20.897" style="stroke-width: 1; transform-origin: 189.627px 315.105px;" transform="matrix(0.707107, 0.707106, -0.707106, 0.707107, -130.385575, -46.945638)"/><rect x="116.9" y="304.657" width="145.455" height="20.897" style="stroke-width: 1; transform-origin: 189.627px 315.105px;" transform="matrix(0.707107, -0.707107, 0.707107, 0.707107, 111.477464, -48.863658)"/><rect x="165.53" y="304.657" width="205.963" height="20.897" style="stroke-width: 1; transform-origin: 268.511px 315.105px;" transform="matrix(0.325568, -0.945519, 0.945519, 0.325568, -86.863524, -94.689998)"/></svg>
