<svg width="32" height="32" version="1.1" viewBox="0 0 32 32" xmlns="http://www.w3.org/2000/svg"><path d="m13.667-1.4013e-6v16.871l14.609-8.4363-7.3045-4.2182zm-9.2945 2.742c-0.16985-0.00872-0.33664 0.053807-0.45979 0.17312-0.12903 0.12568-0.19804 0.30256-0.18801 0.48399v27.941c-0.00518 0.17797 0.063276 0.34978 0.18801 0.47468 0.12139 0.12322 0.2884 0.19017 0.45979 0.18429h3.1348c0.17427 0.0073 0.34496-0.05965 0.4691-0.18429 0.11622-0.1293 0.17762-0.2996 0.17126-0.47468h11.277c-0.0087 0.17681 0.0563 0.34885 0.1787 0.47468 0.12255 0.12141 0.28877 0.18804 0.45979 0.18429h3.1348c0.17446 0.0085 0.34557-0.05869 0.4691-0.18429 0.11622-0.1293 0.17762-0.2996 0.17126-0.47468v-17.638l-1.6958 0.97915-0.1303 0.07447v15.411h-0.78928v-0.65897h-14.873v0.65897h-0.82651v-25.598h0.82651v0.65711h4.9739v-1.8354h-3.1757c0.0094265-0.17556-0.052397-0.34703-0.17126-0.47468-0.12532-0.12169-0.29621-0.1844-0.4691-0.17312h-3.1348zm3.3861 5.5975c-0.092545 0-0.1694 0.18295-0.1694 0.4207v1.4073c0 0.2103 0.076861 0.42256 0.1694 0.42256h3.5648v-2.2506zm0.10983 5.3556c-0.15277 0-0.27923 0.183-0.27923 0.4207v1.4073c0 0.21026 0.12645 0.42256 0.27923 0.42256h3.455v-2.2506zm12.399 2.0681-0.31459 0.18243h0.0391c0.12316-7.9e-5 0.22721-0.07559 0.2755-0.18243zm-12.399 3.213c-0.15277 0-0.27923 0.183-0.27923 0.4207v1.4073c0 0.21026 0.12645 0.4207 0.27923 0.4207h12.124c0.16863-1.07e-4 0.30522-0.13932 0.30529-0.31087v-1.6288c-7.1e-5 -0.17154-0.13666-0.3089-0.30529-0.30901h-5.2867l-3.3824 1.9527v-1.9527zm0 5.3351c-0.15277 0-0.27923 0.18114-0.27923 0.41884v1.4092c0 0.21027 0.12645 0.4207 0.27923 0.4207h12.124c0.16863-1.08e-4 0.30522-0.13932 0.30529-0.31087v-1.627c-7.1e-5 -0.17154-0.13666-0.31076-0.30529-0.31087z" stroke-width=".99999"/></svg>
