<svg width="32" height="32" version="1.1" viewBox="0 0 32 32" xmlns="http://www.w3.org/2000/svg"><path d="m19.8 0.54c-0.3281-0.0224-0.58275 0.11153-0.84091 0.42234-0.52323 0.63026-1.0468 1.2599-1.5701 1.8902-0.0853 0.10274-0.13257 0.15881-0.21969 0.32197-0.41835 0.78446-0.38717 1.4025-0.4394 1.9905h-1.4224c-0.0623-0.47374-0.10502-0.93155-0.25378-1.4811h2e-3c-0.0529-0.19571-0.0778-0.25617-0.19129-0.43561-0.57651-0.91104-1.2917-1.5986-1.8087-2.2614-0.33172-0.42381-0.69155-0.54197-1.214-0.37311-0.52344 0.16912-1.0466 0.33845-1.5701 0.50758-0.51378 0.16595-0.73892 0.44499-0.76894 0.99621-0.0506 0.81295-0.10086 1.6266-0.15151 2.4394v8e-3c-7e-3 0.12174-0.0131 0.19433 0.0152 0.38637 0.12632 0.87669 0.51367 1.3553 0.81818 1.8598-0.38309 0.27672-0.7666 0.55281-1.1497 0.82954-0.33057-0.34846-0.63392-0.69798-1.0871-1.0587-0.15678-0.12481-0.21219-0.15981-0.40531-0.23674-1.0021-0.39807-1.9858-0.53684-2.7974-0.77083h-2e-3c-0.51871-0.14992-0.87831-0.032-1.2008 0.40909-0.32342 0.44261-0.64631 0.88508-0.9697 1.3276l-2e-3 2e-3c-0.31903 0.43771-0.33077 0.79671-0.0379 1.2538 0.45662 0.71378 0.91268 1.4282 1.3693 2.142 0.095 0.14854 0.13422 0.20494 0.29924 0.35038 0.59592 0.52506 1.138 0.6971 1.6553 0.92425-0.14395 0.44053-0.28597 0.88143-0.42992 1.322-0.47364-0.0887-0.92576-0.19266-1.5057-0.21969h-2e-3c-0.19806-0.01-0.26469-5e-3 -0.46591 0.0455-1.0457 0.26374-1.9246 0.72641-2.7197 1.0114-0.50976 0.18263-0.73485 0.49275-0.73485 1.0417v1.6402c0 0.54165 0.20324 0.83822 0.70644 1.036 0.76429 0.29997 1.5293 0.59967 2.2936 0.89962 0.12105 0.0475 0.18987 0.0739 0.36364 0.10606h2e-3l2e-3 2e-3c0.8455 0.15338 1.5061 2e-3 2.0701-0.13068 0.1378 0.42174 0.27506 0.84341 0.41287 1.2652-0.43391 0.20421-0.8576 0.38303-1.3409 0.69887h-2e-3c-0.16589 0.10859-0.21557 0.14989-0.35037 0.3106-0.69155 0.82493-1.1288 1.714-1.6023 2.4072-0.30675 0.4469-0.30547 0.83453 0.0189 1.2784 0.3234 0.44257 0.64629 0.88504 0.9697 1.3276 0.31878 0.43626 0.65143 0.55623 1.1742 0.42235 0.79623-0.20417 1.592-0.40946 2.3883-0.61364 0.12376-0.0317 0.19486-0.0481 0.35985-0.12689 0.77599-0.37033 1.2203-0.88114 1.5985-1.3182 0.36275 0.26206 0.72627 0.52393 1.089 0.78598-0.22918 0.41896-0.46632 0.8122-0.67046 1.3428v2e-3c-0.0696 0.1812-0.0889 0.24219-0.10227 0.4697v2e-3c-0.0711 1.0714 0.10064 2.0419 0.12689 2.8769 0.0167 0.54118 0.24358 0.85037 0.76516 1.0189 0.52345 0.16913 1.0466 0.33846 1.5701 0.50758 0.51417 0.1663 0.85415 0.0685 1.1989-0.34659v-2e-3c0.52322-0.63025 1.0468-1.2599 1.5701-1.8902 0.0854-0.10273 0.13068-0.15882 0.2178-0.32197 0.41857-0.78487 0.38714-1.4023 0.4394-1.9905h1.4242c0.0624 0.47418 0.10296 0.93279 0.25189 1.483 0.0525 0.19403 0.0783 0.25682 0.19129 0.43561 0.57652 0.91104 1.2917 1.5967 1.8087 2.2595v2e-3c0.33173 0.4238 0.69154 0.54007 1.214 0.37121 0.52343-0.16912 1.0466-0.33845 1.5701-0.50758 0.51271-0.1656 0.73628-0.44541 0.76705-0.99431 0.0506-0.81359 0.10272-1.626 0.15341-2.4394v-8e-3c7e-3 -0.12054 0.0121-0.19472-0.0152-0.38258-0.12528-0.87862-0.51313-1.3582-0.81818-1.8636 0.38249-0.27633 0.76523-0.55323 1.1477-0.82955 0.33072 0.34862 0.63363 0.69776 1.0871 1.0587 0.15677 0.12481 0.21408 0.15793 0.4072 0.23485 1.0027 0.39832 1.9855 0.53847 2.7974 0.77273 0.5181 0.14939 0.87935 0.0313 1.2026-0.41099 0.32341-0.4426 0.64631-0.88508 0.96969-1.3276h2e-3c0.31904-0.43771 0.32892-0.7986 0.036-1.2557-0.45616-0.71305-0.91316-1.4271-1.3693-2.1402-0.095-0.14854-0.13422-0.20683-0.29924-0.35227-0.5963-0.5254-1.1379-0.69702-1.6553-0.92425 0.14398-0.44063 0.28784-0.88134 0.43182-1.322 0.47379 0.0887 0.92558 0.19474 1.5057 0.2216 0.19994 0.01 0.26578 4e-3 0.46781-0.0473 1.0457-0.26374 1.9246-0.72453 2.7197-1.0095 0.50973-0.18278 0.73292-0.4948 0.73292-1.0437v-1.6402c1e-5 -0.54166-0.20134-0.83633-0.70454-1.0341-0.76483-0.30018-1.5306-0.60135-2.2955-0.90152-0.12104-0.0475-0.18796-0.0739-0.36174-0.10606h-4e-3c-0.84655-0.15356-1.5077-2e-3 -2.072 0.13068-0.13797-0.42222-0.27491-0.84483-0.41288-1.267 0.43398-0.20424 0.85941-0.38108 1.3428-0.69697 0.1659-0.1086 0.21747-0.15179 0.35228-0.3125 0.6918-0.82524 1.1286-1.7119 1.6023-2.4053v-2e-3c0.3054-0.44607 0.305-0.83519-0.0189-1.2784-0.32338-0.44257-0.64628-0.88504-0.96969-1.3276-0.31878-0.43626-0.65143-0.55434-1.1742-0.42045h-2e-3c-0.79622 0.20417-1.592 0.40756-2.3882 0.61174-0.12377 0.0317-0.19296 0.0499-0.35796 0.12879-0.77528 0.36999-1.2205 0.87942-1.5985 1.3163-0.3633-0.26245-0.72761-0.52352-1.0909-0.78598 0.22924-0.41907 0.46623-0.81199 0.67045-1.3428 0.0696-0.1812 0.0909-0.24407 0.10417-0.47159 0.0711-1.0714-0.10065-2.0438-0.12689-2.8788-0.0167-0.54118-0.24359-0.85038-0.76516-1.0189-0.52288-0.16894-1.0472-0.33864-1.5701-0.50758h-2e-3c-0.12805-0.0413-0.24651-0.0664-0.35588-0.0739zm0.29356 2.0928c0.16283 0.0527 0.3258 0.10459 0.48863 0.1572 0.0518 0.73924 0.13334 1.4677 0.10038 2.0511-0.21057 0.52902-0.56198 1.0982-0.89962 1.786h-2e-3c-0.26017 0.53034-0.10424 1.0341 0.3447 1.3561 0.76058 0.54947 1.5216 1.1002 2.2822 1.6496 0.45383 0.3272 0.93065 0.3164 1.3636-0.0682l2e-3 -2e-3c0.75149-0.66855 1.189-1.3019 1.5796-1.5-4e-3 1e-3 7e-3 -2e-3 6e-3 -2e-3 0.01-4e-3 0.0225-9e-3 0.0152-8e-3h2e-3c0.6156-0.15788 1.2308-0.3156 1.8465-0.47349 0.0995 0.13615 0.19786 0.27293 0.29734 0.40909-0.39595 0.62978-0.76308 1.2676-1.1364 1.7216-0.47691 0.30326-1.1005 0.55323-1.7841 0.91667-0.52797 0.28038-0.68942 0.7733-0.51894 1.2936 0.29087 0.89018 0.58224 1.7803 0.87311 2.6704 0.17448 0.53571 0.56737 0.8058 1.1439 0.74811h2e-3c1.016-0.10244 1.7487-0.36735 2.1837-0.28977-0.0688-0.0127 0.0287 0.012 8e-3 4e-3 0.58986 0.23151 1.1791 0.46358 1.7689 0.69507v0.5c-0.69398 0.27846-1.3674 0.58056-1.9413 0.73106-0.56597-0.0331-1.2192-0.19559-1.9886-0.30113h-4e-3c-0.58711-0.0784-1.0026 0.21898-1.1724 0.73863-0.29087 0.89017-0.58224 1.7803-0.87311 2.6705-0.17457 0.53285-3e-3 1.008 0.50569 1.2898 0.81858 0.45833 1.527 0.69108 1.9053 1.0152 0.3452 0.53962 0.69077 1.0778 1.036 1.6174-0.0997 0.13645-0.19953 0.27264-0.29924 0.40909-0.72622-0.1805-1.4498-0.33005-2.0038-0.54356-0.43801-0.35683-0.87069-0.87104-1.4318-1.4072-0.43141-0.41222-0.94407-0.41009-1.3864-0.089-0.76027 0.54925-1.5219 1.0985-2.2822 1.6477-0.458 0.33022-0.59587 0.79908-0.35795 1.3296 0.41266 0.91981 0.88255 1.5339 0.94697 1.9754 1.3e-4 8.6e-4 2e-3 3e-3 2e-3 4e-3v6e-3l-2e-3 -2e-3c-0.039 0.62552-0.0785 1.2515-0.11743 1.8769-0.1634 0.0528-0.32712 0.10441-0.49053 0.1572-0.48021-0.56966-0.9771-1.112-1.2973-1.6061-0.14186-0.54889-0.1932-1.2146-0.32576-1.9659l-2e-3 -2e-3c-0.10267-0.5895-0.51959-0.89583-1.0682-0.89583h-2.8239c-0.56296 0-0.94716 0.29351-1.0682 0.86174-0.2098 0.98557-0.19303 1.7578-0.40151 2.1515-0.4041 0.48675-0.808 0.97345-1.2121 1.4602-0.16359-0.0528-0.32695-0.10624-0.49053-0.15909-0.0519-0.7404-0.13191-1.469-0.0985-2.053 0.21069-0.52844 0.56242-1.0953 0.89962-1.7822v-2e-3c0.25972-0.52941 0.10619-1.0303-0.34091-1.3523-0.7617-0.55028-1.5224-1.1012-2.2841-1.6515h-2e-3c-0.4546-0.32777-0.93006-0.31832-1.3636 0.0682-0.76283 0.67833-1.2016 1.3229-1.5966 1.5114 0.0688-0.0329-0.0256 3e-3 -6e-3 -2e-3 -0.61556 0.15785-1.231 0.31564-1.8466 0.47349-0.0991-0.13565-0.19824-0.27155-0.29735-0.4072 0.39518-0.62854 0.76019-1.2661 1.1326-1.7197 0.47765-0.30438 1.1022-0.55386 1.7879-0.91856 0.52728-0.28002 0.68835-0.77403 0.51894-1.2936v-2e-3c-0.29059-0.88941-0.58232-1.7788-0.87301-2.6684-0.17449-0.53571-0.56927-0.80579-1.1458-0.7481-1.0168 0.10252-1.7507 0.36609-2.1856 0.28788 0.0688 0.0127-0.0269-0.0121-6e-3 -4e-3 -0.58995-0.23155-1.1809-0.46167-1.7708-0.69319v-0.5019c0.69254-0.27788 1.3666-0.57843 1.9394-0.72916 0.56668 0.0326 1.2216 0.19539 1.9924 0.30113h4e-3c0.58711 0.0784 1.0026-0.22087 1.1723-0.74053 0.29087-0.89015 0.58224-1.7803 0.87311-2.6704 0.17457-0.53286 3e-3 -1.008-0.50568-1.2898-0.81826-0.45815-1.5287-0.68939-1.9072-1.0133-0.34509-0.53943-0.689-1.0799-1.0341-1.6193 0.0993-0.13594 0.1999-0.27126 0.29924-0.4072 0.72687 0.18067 1.4514 0.32973 2.0057 0.54356 0.43742 0.3568 0.86955 0.86987 1.4299 1.4053 0.43142 0.41221 0.94407 0.41203 1.3864 0.0909 0.76098-0.54977 1.5212-1.0999 2.2822-1.6496 0.45801-0.33022 0.59587-0.79907 0.35795-1.3295-0.41233-0.9191-0.88196-1.5321-0.94697-1.9735v-2e-3c-1.3e-4 -8.5e-4 -2e-3 -3e-3 -2e-3 -4e-3v-2e-3h2e-3c0.039-0.62493 0.0786-1.2502 0.11742-1.875 0.16359-0.0529 0.32695-0.10624 0.49053-0.15909 0.48074 0.57019 0.97731 1.1134 1.2974 1.608 0.1414 0.54893 0.19313 1.2131 0.32576 1.964 0.10178 0.59144 0.51867 0.89583 1.0682 0.89583h2.8258c0.56297 0 0.94527-0.29351 1.0663-0.86174 0.20963-0.98474 0.19548-1.7556 0.40341-2.1496v-2e-3c0.40379-0.48639 0.80831-0.97194 1.2121-1.4583zm-4.0947 9.7879c-1.9726-1e-5 -3.5985 1.613-3.5985 3.5833 0 1.9704 1.6259 3.5833 3.5985 3.5833s3.5985-1.613 3.5985-3.5833c1e-5 -1.9704-1.6259-3.5833-3.5985-3.5833zm0 1.9394c0.93045 0 1.6591 0.7277 1.6591 1.6439 0 0.91625-0.72864 1.6439-1.6591 1.6439-0.93043 0-1.6591-0.72769-1.6591-1.6439 0-0.91624 0.72866-1.6439 1.6591-1.6439zm9.8655 4.2386c2e-3 2.2e-4 4e-3 -2.2e-4 6e-3 0l-2e-3 2e-3z"/></svg>
