<svg version="1.1" viewBox="0 0 32 32" xmlns="http://www.w3.org/2000/svg"><path d="m8.1894 5.1242a1.2071 1.2071 0 0 0-1.4117 0.95847l-0.68819 3.6135a0.93552 0.93552 0 0 0-0.22662 0.07069l-5.3267 2.5116a0.93552 0.93552 0 0 0-0.27652 1.4928l4.0439 4.2248a0.93552 0.93552 0 0 0 0.1788 0.14138l-0.5676 2.9752a1.2071 1.2071 0 0 0 0.95847 1.4117l22.829 4.3516a1.2071 1.2071 0 0 0 1.4117-0.96055l2.865-15.03a1.2071 1.2071 0 0 0-0.96055-1.4117zm0.73393 2.5968 20.456 3.8984-2.4118 12.66-20.456-3.8984zm-3.9233 4.5221-0.60087 3.1478-1.8899-1.9731zm8.0628 1.0811a1.7321 1.7321 0 0 0-1.7818 1.4055 1.7321 1.7321 0 0 0 1.3785 2.0251 1.7321 1.7321 0 0 0 2.0251-1.3764 1.7321 1.7321 0 0 0-1.3764-2.0251 1.7321 1.7321 0 0 0-0.24534-0.0291zm5.1042 0.97303a1.7321 1.7321 0 0 0-1.7818 1.4055 1.7321 1.7321 0 0 0 1.3785 2.0251 1.7321 1.7321 0 0 0 2.0251-1.3764 1.7321 1.7321 0 0 0-1.3764-2.0271 1.7321 1.7321 0 0 0-0.24534-0.02703zm5.1042 0.97095a1.7321 1.7321 0 0 0-1.7797 1.4076 1.7321 1.7321 0 0 0 1.3764 2.0251 1.7321 1.7321 0 0 0 2.0251-1.3764 1.7321 1.7321 0 0 0-1.3764-2.0271 1.7321 1.7321 0 0 0-0.24534-0.0291z"/></svg>
