<svg xmlns="http://www.w3.org/2000/svg" viewBox="0 0 32 32"><path d="M8.08,23.44a5.92,5.92,0,0,0,1,3.73A5,5,0,0,0,12,28.87a23.47,23.47,0,0,0,5.06.43,23.53,23.53,0,0,0,5.06-.43A5,5,0,0,0,25,27.17a5.86,5.86,0,0,0,1-3.73h2.42A8.48,8.48,0,0,1,26.91,29a7.22,7.22,0,0,1-4,2.44,26.61,26.61,0,0,1-5.87.56,26.55,26.55,0,0,1-5.87-.56,7.23,7.23,0,0,1-4-2.44,8.53,8.53,0,0,1-1.56-5.56Z"/><path d="M13.48,8a.47.47,0,0,1-.54.07l-1.66-.73a.48.48,0,0,1-.22-.16A.18.18,0,0,1,11,7a.49.49,0,0,1,.11-.13L19.66.12a.5.5,0,0,1,.55-.07L22,.83a.49.49,0,0,1,.32.45l.83,10.8a.59.59,0,0,1,0,.17.19.19,0,0,1-.16.12.51.51,0,0,1-.27-.06L21,11.58a.46.46,0,0,1-.31-.44L20.05,2.8Z"/><path d="M17.26,23.51H15.48a.34.34,0,0,1-.34-.36,5.82,5.82,0,0,1,2-3.95,3.42,3.42,0,0,0,1.32-2.61A3.44,3.44,0,0,0,17.14,14a5.63,5.63,0,0,1,0-8.62,3.44,3.44,0,0,0,1.32-2.62H20.9A5.75,5.75,0,0,1,18.9,7a3.41,3.41,0,0,0-1.32,2.62,3.41,3.41,0,0,0,1.32,2.62,5.64,5.64,0,0,1,0,8.62,3.57,3.57,0,0,0-1.31,2.3A.33.33,0,0,1,17.26,23.51Z"/></svg>
