<svg width="32" height="32" version="1.1" viewBox="0 0 32 32" xmlns="http://www.w3.org/2000/svg"><path d="m16.04 2.7333e-5c-1.2683 0.0089521-1.7367 1.4846-2.3265 2.7954-2.1956 5.9675-4.4206 11.926-6.5983 17.899-0.011715 0.05478-0.017645 0.09813-0.027934 0.14964-0.27274 0.08988-0.53999 0.18258-0.79611 0.28133-1.281 0.49392-2.3592 1.0888-3.1784 1.8356s-1.4087 1.7187-1.4087 2.8213 0.58936 2.0765 1.4087 2.8233 1.8974 1.3397 3.1784 1.8336c2.5621 0.98783 5.9589 1.5603 9.7089 1.5603s7.1468-0.57246 9.7089-1.5603c1.281-0.49392 2.3592-1.0868 3.1784-1.8336 0.81929-0.74683 1.4087-1.7207 1.4087-2.8233s-0.58936-2.0745-1.4087-2.8213c-0.81929-0.74683-1.8974-1.3417-3.1784-1.8356-0.25623-0.0988-0.52328-0.19133-0.79611-0.28133-0.0701-0.33692-0.16011-0.65871-0.22945-0.73226-2.3473-6.348-4.1592-11.095-6.5125-17.441-0.4063-0.99198-1.0057-2.6796-2.1309-2.6717zm-0.03991 3.2363c2.2251 6.0443 4.4718 12.083 6.6881 18.129 0.10076 1.2132-1.1531 1.9648-2.103 2.4163-2.8676 1.202-6.2404 1.2027-9.1163 0.02594-0.96648-0.45401-2.2496-1.1773-2.1529-2.4123 1.1527-3.2582 2.3918-6.4918 3.5755-9.7409zm-8.6215 19.943c1.0333 2.0257 3.3799 3.0125 5.5029 3.4817 3.3522 0.64967 7.0862 0.37348 9.9962-1.5463 0.71559-0.48775 1.357-1.1534 1.7419-1.9354 0.08696 0.03104 0.17987 0.05959 0.26337 0.09178 1.098 0.42333 1.945 0.92273 2.4562 1.3887 0.51119 0.46598 0.65844 0.82624 0.65844 1.1233 0 0.29709-0.14725 0.65736-0.65844 1.1233-0.51119 0.46598-1.3582 0.96537-2.4562 1.3887-2.1959 0.84665-5.3724 1.4067-8.8829 1.4067s-6.687-0.56-8.8829-1.4067c-1.098-0.42333-1.945-0.92273-2.4562-1.3887-0.51119-0.46598-0.65844-0.82624-0.65844-1.1233 0-0.29709 0.14725-0.65736 0.65844-1.1233s1.3582-0.96537 2.4562-1.3887c0.082904-0.03196 0.17507-0.0609 0.26138-0.09178z"/></svg>
