<svg xmlns="http://www.w3.org/2000/svg" viewBox="0 0 32 32"><path d="M21.17.72H15.58V15.28a1.86,1.86,0,0,0,2,2h2.17a.33.33,0,0,1,.26.1.36.36,0,0,1,.1.26V18.9a.4.4,0,0,1-.1.26.36.36,0,0,1-.26.1H16.78a3.78,3.78,0,0,1-1.89-.46,3,3,0,0,1-1.23-1.28,4.19,4.19,0,0,1-.43-1.93V.72H8.66A.74.74,0,0,0,8.47.19.7.7,0,0,0,7.94,0H4.46a.73.73,0,0,0-.52.19.71.71,0,0,0-.2.53V31.28a.69.69,0,0,0,.72.72H7.94a.71.71,0,0,0,.53-.2.77.77,0,0,0,.19-.52H21.17a.69.69,0,0,0,.72.72h3.48a.71.71,0,0,0,.53-.2.73.73,0,0,0,.19-.52V7S21.17.49,21.17.72Z"/></svg>
