<svg xmlns="http://www.w3.org/2000/svg" viewBox="0 0 32 32"><path d="M20.87,10.58a.52.52,0,0,1-.54-.18L19.1,9A.55.55,0,0,1,19,8.76.18.18,0,0,1,19,8.57a.47.47,0,0,1,.17-.07L30,6a.48.48,0,0,1,.54.17L31.86,7.6a.53.53,0,0,1,.1.56l-3.9,10.4a.69.69,0,0,1-.09.15.2.2,0,0,1-.21.05.62.62,0,0,1-.22-.17l-1.23-1.4a.48.48,0,0,1-.1-.55l3-8Z"/><path d="M18,19.9a.39.39,0,0,1-.29.12.41.41,0,0,1-.27-.15l-.94-1.07a.38.38,0,0,1-.11-.28.35.35,0,0,1,.15-.28L28.22,8a.39.39,0,0,1,.29-.11.4.4,0,0,1,.27.14l.94,1.07a.39.39,0,0,1,.11.3.45.45,0,0,1-.14.27Z"/><path d="M1.61,24.35a.39.39,0,0,1-.29.12.41.41,0,0,1-.27-.15L.11,23.25A.38.38,0,0,1,0,23a.35.35,0,0,1,.15-.28L11.8,12.46a.41.41,0,0,1,.29-.11.44.44,0,0,1,.28.14l.93,1.07a.36.36,0,0,1,.11.3.45.45,0,0,1-.14.27Z"/><path d="M10.67,13.77a.2.2,0,0,1,0-.2.63.63,0,0,1,.18-.24l1.06-.94a.61.61,0,0,1,.26-.14.19.19,0,0,1,.2.05l6.09,6.94a.19.19,0,0,1,0,.21.59.59,0,0,1-.17.24l-1.07.94a.52.52,0,0,1-.26.14.2.2,0,0,1-.19-.06Z"/></svg>
