<svg viewBox="0 0 32 32" xmlns="http://www.w3.org/2000/svg"><path d="m28.359 0-26.767 26.767a0.50215 0.50215 0 0 0 0 0.71015l4.376 4.376a0.50222 0.50222 0 0 0 0.71019 6e-5l6.414-6.4122c2.2181-2.1161 4.2246-3.2373 5.655-3.8328 1.4304-0.59551 2.1832-0.65319 2.1832-0.65319l0.23734-0.0235 0.21184-0.10985s4.6739-2.4164 7.7283-7.7068c3.2387-5.6097 0.0255-11.63 0.0255-11.63zm-0.86503 4.3447c0.58832 1.6931 1.2637 4.4558-0.51588 7.5381-2.6697 4.6241-6.7045 6.7384-6.7221 6.7476-0.29585 0.04185-1.0207 0.10953-2.4538 0.70615-0.72257 0.3008-1.5573 0.71823-2.4617 1.2691l-2.0537-2.0537zm-15.947 15.947 1.7359 1.7359c-0.61385 0.47843-1.2443 1.017-1.8889 1.632l-0.01177 0.01-0.01177 0.0117-5.0489 5.0469-1.6065-1.6065z"/></svg>
