<?xml version="1.0" encoding="UTF-8"?>
<svg width="125.2mm" height="125.2mm" version="1.1" viewBox="0 0 125.2 125.2" xmlns="http://www.w3.org/2000/svg"><g transform="translate(-19.71 -92.92)"><g transform="matrix(9.476 0 0 9.476 -686.1 -3235)" style="shape-inside:url(#rect63);white-space:pre" aria-label="#"><path d="m84.87 354.9q0.1213 0 0.2167 0.078 0.09533 0.0693 0.078 0.182l-0.052 0.338q-0.01733 0.1127-0.13 0.1907-0.1127 0.0693-0.234 0.0693h-1.3l-0.572 4.073h1.291q0.13 0 0.2253 0.078 0.09533 0.0693 0.078 0.182l-0.052 0.338q-0.01733 0.1127-0.1387 0.1907-0.1127 0.0693-0.234 0.0693h-1.291l-0.4853 3.449q-0.01733 0.1213-0.104 0.1907-0.078 0.0693-0.1907 0.0693h-0.3987q-0.1213 0-0.182-0.078-0.06067-0.0693-0.04333-0.182l0.4853-3.449h-2.305l-0.4853 3.449q-0.01733 0.1213-0.104 0.1907-0.078 0.0693-0.1907 0.0693h-0.3987q-0.1213 0-0.182-0.078-0.06067-0.0693-0.04333-0.182l0.4853-3.449h-1.369q-0.1213 0-0.182-0.0693-0.06067-0.078-0.04333-0.1907l0.052-0.338q0.01733-0.1213 0.09533-0.1907 0.08667-0.0693 0.1993-0.0693h1.369l0.572-4.073h-1.369q-0.1213 0-0.182-0.0693-0.06067-0.078-0.04333-0.1907l0.052-0.338q0.01733-0.1213 0.09533-0.1907 0.08667-0.0693 0.1993-0.0693h1.369l0.4853-3.458q0.01733-0.1213 0.09533-0.1907 0.08667-0.0693 0.1993-0.0693h0.3987q0.1213 0 0.182 0.078 0.06067 0.0693 0.04333 0.182l-0.4853 3.458h2.305l0.4853-3.458q0.01733-0.1213 0.09533-0.1907 0.08667-0.0693 0.1993-0.0693h0.3987q0.1213 0 0.182 0.078 0.06067 0.0693 0.04333 0.182l-0.4853 3.458zm-5.217 4.931h2.305l0.572-4.073h-2.305z"/></g></g></svg>
