<svg xmlns="http://www.w3.org/2000/svg" viewBox="0 0 32 32"><path d="M3.73,13a.44.44,0,0,0,.43-.36C5.31,6.85,9.5,2.2,16.21,2.2c8,0,12.3,6.18,12.39,13.8.09,8.11-4.52,13.8-12.39,13.8-6.65,0-10.9-4.68-12.07-10.5l-.42.12c-.57.16-1.12.36-1.68.55A16.4,16.4,0,0,0,5.37,27a13.83,13.83,0,0,0,10.84,5,14.09,14.09,0,0,0,10.28-4c2.83-2.87,4.36-7.14,4.3-12A17.63,17.63,0,0,0,27,4.83,13.62,13.62,0,0,0,16.21,0,13.64,13.64,0,0,0,5.33,5,16.44,16.44,0,0,0,2,12.49a.44.44,0,0,0,.43.51Z"/><path d="M4,30.08a.49.49,0,0,1-.26.48l-1.56.93a.59.59,0,0,1-.26.08.19.19,0,0,1-.17-.1.37.37,0,0,1,0-.17L1.21,20.48A.49.49,0,0,1,1.47,20l1.66-1a.5.5,0,0,1,.55,0l9.26,5.61a.52.52,0,0,1,.13.12.18.18,0,0,1,0,.2.45.45,0,0,1-.2.18l-1.56.93a.45.45,0,0,1-.54,0L3.61,21.73Z"/></svg>
