<svg xmlns="http://www.w3.org/2000/svg" viewBox="0 0 32 32"><path d="M14.67,0h1.55a.45.45,0,0,1,.45.46V21.19H14.22V.46A.45.45,0,0,1,14.67,0Z"/><path d="M19.41,13.56a.49.49,0,0,1,.47-.29h1.83a.48.48,0,0,1,.26.06.19.19,0,0,1,.1.18.38.38,0,0,1-.05.16l-5.13,9.62a.48.48,0,0,1-.47.28h-2a.5.5,0,0,1-.47-.28L8.87,13.67a.38.38,0,0,1,0-.16.19.19,0,0,1,.1-.18.49.49,0,0,1,.27-.06H11a.48.48,0,0,1,.47.29l4,7.42Z"/><path d="M6.4,23.39a5.94,5.94,0,0,0,1,3.75,5,5,0,0,0,2.92,1.71,23.84,23.84,0,0,0,5.09.43,23.88,23.88,0,0,0,5.1-.43,5,5,0,0,0,2.93-1.71,5.88,5.88,0,0,0,1-3.75h2.44A8.55,8.55,0,0,1,25.35,29a7.2,7.2,0,0,1-4,2.45,26.28,26.28,0,0,1-5.91.57,26.19,26.19,0,0,1-5.9-.57,7.15,7.15,0,0,1-4-2.45A8.55,8.55,0,0,1,4,23.39Z"/></svg>
