<svg viewBox="0 0 32 32" xmlns="http://www.w3.org/2000/svg"><path d="m14.782-2e-4c-0.15036 0-0.27412 8e-3 -0.37141 0.0216-0.0973 0.0133-0.14598 0.0358-0.14598 0.0579v3.759h3.4714v-3.759c0-0.0221-0.0487-0.0402-0.14597-0.0579-0.0973-0.0177-0.22105-0.0216-0.37141-0.0216zm-9.0702 1.1669c-0.24766 0-0.44656 0.33165-0.44656 0.7385v4.0907h-1.2913c-0.13709 0-0.24754 0.0405-0.33599 0.12006-0.0884 0.0752-0.13302 0.17687-0.13302 0.29627v1.4675c0 0.12825 0.0446 0.23059 0.13302 0.30577 0.0884 0.0752 0.1989 0.11055 0.33599 0.11055h1.2913v22.876c0 0.40686 0.1989 0.73937 0.44656 0.73937l11.406 0.0795s0.0213 9e-3 0.0345 9e-3h9.1419c0.24766 0 0.44656-0.33165 0.44656-0.7385v-22.965h1.287c0.14594 0 0.26061-0.0354 0.34463-0.11056 0.084-0.0752 0.12351-0.17752 0.12351-0.30577v-1.4675c0-0.1194-0.0395-0.21666-0.12351-0.29626-0.084-0.0796-0.19869-0.12006-0.34463-0.12006h-1.287v-4.0017c0-0.40685-0.1989-0.7385-0.44656-0.7385v4e-3h-5.5945c-0.0973 0-0.17237 0.0445-0.22544 0.13734-0.0531 0.0929-0.0846 0.21653-0.0846 0.37573v1.667c0 0.14593 0.0272 0.2698 0.0846 0.36709 0.0531 0.0973 0.12815 0.14597 0.22544 0.14597h3.9223v2.0428h-17.239v-2.136h3.9231c0.0973 0 0.17237-0.0487 0.22544-0.14598 0.0531-0.0973 0.0838-0.21673 0.0838-0.36709v-1.667c0-0.1592-0.0263-0.28285-0.0838-0.37572-0.0531-0.0884-0.12815-0.13734-0.22544-0.13734zm1.6713 7.1293h17.239v21.015h-6.1291l-11.109-0.0933zm3.556 2.3744c-0.084 0-0.15078 0.0313-0.20384 0.0976-0.0531 0.0663-0.0795 0.1505-0.0795 0.25221l9e-3 1.6541v14.438h1.9106l-9e-3 -14.438v-1.6541c0-0.10171-0.0264-0.18588-0.0795-0.25221-0.0531-0.0663-0.11982-0.0976-0.20384-0.0976zm4.3826 0c-0.084 0-0.15078 0.0313-0.20385 0.0976-0.0531 0.0663-0.0795 0.1505-0.0795 0.25221l9e-3 1.6541v14.438h1.9106l-9e-3 -14.438v-1.6541c0-0.10171-0.0264-0.18588-0.0795-0.25221-0.0531-0.0663-0.11982-0.0976-0.20384-0.0976zm4.3783 0c-0.084 0-0.15078 0.0313-0.20385 0.0976-0.0531 0.0663-0.0795 0.1505-0.0795 0.25221l9e-3 1.6541v14.438h1.9106l-9e-3 -14.438v-1.6541c0-0.10171-0.0264-0.18588-0.0795-0.25221-0.0531-0.0663-0.11982-0.0976-0.20385-0.0976z"/></svg>
