<svg xmlns="http://www.w3.org/2000/svg" viewBox="0 0 32 32"><path d="M16.22,23.57H14.67a.45.45,0,0,1-.45-.46V2.38h2.45V23.11A.45.45,0,0,1,16.22,23.57Z"/><path d="M11.48,10a.49.49,0,0,1-.47.29H9.19a.49.49,0,0,1-.27-.06.19.19,0,0,1-.1-.18.64.64,0,0,1,0-.16L14,.28A.48.48,0,0,1,14.48,0h1.94a.49.49,0,0,1,.47.28L22,9.9a.38.38,0,0,1,.05.16.2.2,0,0,1-.09.18.54.54,0,0,1-.27.06H19.88a.48.48,0,0,1-.47-.29l-4-7.42Z"/><path d="M6.4,23.39a5.94,5.94,0,0,0,1,3.75,5,5,0,0,0,2.92,1.71,23.84,23.84,0,0,0,5.09.43,23.88,23.88,0,0,0,5.1-.43,5,5,0,0,0,2.93-1.71,5.88,5.88,0,0,0,1-3.75h2.44A8.55,8.55,0,0,1,25.35,29a7.2,7.2,0,0,1-4,2.45,26.28,26.28,0,0,1-5.91.57,26.19,26.19,0,0,1-5.9-.57,7.15,7.15,0,0,1-4-2.45A8.55,8.55,0,0,1,4,23.39Z"/></svg>
