<svg xmlns="http://www.w3.org/2000/svg" viewBox="0 0 32 32"><path d="m 20,11.179695 a 0.48,-0.48 0 0 0 0.47,0.32 h 1.82 a 0.54,-0.54 0 0 0 0.27,-0.07 0.23,-0.23 0 0 0 0.1,-0.2 0.59,-0.59 0 0 0 -0.06,-0.18 L 17.44,0.3096947 A 0.47,-0.47 0 0 0 16.97,-3.0530265e-4 H 15 A 0.47,-0.47 0 0 0 14.53,0.3096947 L 9.44,11.049695 a 0.59,-0.59 0 0 0 -0.06,0.18 0.23,-0.23 0 0 0 0.1,0.2 0.54,-0.54 0 0 0 0.27,0.06 h 1.82 a 0.47,-0.47 0 0 0 0.47,-0.32 l 4,-8.2900003 z" /><path d="m 14.91,23.099695 a 0.4,-0.4 0 0 0 0.09,0.29 0.41,-0.41 0 0 0 0.3,0.1 h 1.39 a 0.46,-0.46 0 0 0 0.31,-0.1 0.4,-0.4 0 0 0 0.11,-0.29 V 2.9296947 a 0.39,-0.39 0 0 0 -0.11,-0.28 0.38,-0.38 0 0 0 -0.29,-0.11 H 15.3 a 0.34,-0.34 0 0 0 -0.28,0.11 0.39,-0.39 0 0 0 -0.11,0.28 z" /><path d="M26.08,29.49a.36.36,0,0,1,.29.12.49.49,0,0,1,.11.33v1.61a.48.48,0,0,1-.11.32.34.34,0,0,1-.29.13H5.92a.33.33,0,0,1-.28-.13.44.44,0,0,1-.12-.32V29.94a.45.45,0,0,1,.12-.33.35.35,0,0,1,.28-.12Z" /></svg>
